# xmcd CD database file
#
# Track frame offsets:
#	150
#	21407
#	38940
#	57947
#
# Disc length: 1002 seconds
#
# Revision: 0
# Processed by: cddbd v1.5.1PL0 Copyright (c) Steve Scherf et al.
# Submitted via: CDex 1.51
#
DISCID=3003e804
DTITLE=カーネーション - DUCK BOAT
DYEAR=1986
DGENRE=Rock
TTITLE0=空色のコンビナート
TTITLE1=昨日の誤算
TTITLE2=ジョンとメリー
TTITLE3=カイト氏の朝食
EXTD=YEAR: 1986
EXTT0=
EXTT1=
EXTT2=
EXTT3=
PLAYORDER=
